#!OML:ASF H:\ManfredETheater\Project 1\Capture day 1\Session 1\subject.ASF
:FULLY-SPECIFIED
:DEGREES
1376
root 3.33382 17.9922 -4.12578 8.42561 5.19134 1.42931
lowerback 6.07595 -0.824803 -2.61994
upperback -3.29206 -1.2909 0.782218
thorax -6.77988 -0.496104 2.44305
lowerneck -19.1018 -3.98208 -5.46021
upperneck 5.47805 -4.53467 5.17518
head 4.94314 -1.9842 2.06622
rclavicle 7.0817e-015 1.61016e-014
rhumerus -24.925 -24.6025 0.729294
rradius 27.4343
rwrist 2.0172
rhand -21.8316 -17.3011
rfingers 7.12502
rthumb 4.57136 -47.2318
lclavicle 7.0817e-015 1.61016e-014
lhumerus -20.9775 19.9464 6.86418
lradius 26.534
lwrist -14.4649
lhand -16.5239 16.7931
lfingers 7.12502
lthumb 9.69475 46.55
rfemur -17.4928 -6.48479 18.7212
rtibia 34.1283
rfoot -21.184 -11.649
rtoes 11.654
lfemur -19.5459 -4.80402 -18.2888
ltibia 34.6328
lfoot -18.596 4.04856
ltoes -2.98259
1377
root 3.33566 17.9948 -4.12018 8.35849 5.19046 1.41797
lowerback 5.96947 -0.831965 -2.62262
upperback -3.30914 -1.29677 0.802826
thorax -6.73573 -0.499023 2.46462
lowerneck -19.1842 -3.97925 -5.43635
upperneck 5.76262 -4.53212 5.08078
head 5.04227 -1.98701 2.03049
rclavicle 4.08751e-015 2.18663e-015
rhumerus -24.5747 -24.7072 0.877781
rradius 27.2365
rwrist 2.2239
rhand -21.8123 -17.3259
rfingers 7.12502
rthumb 4.58997 -47.2562
lclavicle 4.08751e-015 2.18663e-015
lhumerus -20.7704 20.1492 6.76203
lradius 26.3075
lwrist -14.8245
lhand -16.4407 16.832
lfingers 7.12502
lthumb 9.77502 46.5851
rfemur -17.3535 -6.42993 18.7182
rtibia 34.0372
rfoot -21.1403 -11.7082
rtoes 11.6804
lfemur -19.4253 -4.93606 -18.3046
ltibia 34.5878
lfoot -18.5571 4.22354
ltoes -3.00308
1378
root 3.33681 17.9974 -4.11484 8.28369 5.18872 1.39737
lowerback 5.87203 -0.834276 -2.62821
upperback -3.32086 -1.29629 0.828384
thorax -6.69135 -0.498619 2.4924
lowerneck -19.2684 -3.97542 -5.40952
upperneck 6.03638 -4.52855 4.99022
head 5.13846 -1.98912 1.99561
rclavicle 1.73937e-016 2.68359e-014
rhumerus -24.2468 -24.8172 1.02599
rradius 27.0328
rwrist 2.42869
rhand -21.7918 -17.3671
rfingers 7.12502
rthumb 4.6098 -47.2969
lclavicle 1.73937e-016 2.68359e-014
lhumerus -20.5602 20.3632 6.68208
lradius 26.0696
lwrist -15.1914
lhand -16.3488 16.8821
lfingers 7.12502
lthumb 9.86365 46.631
rfemur -17.2069 -6.3349 18.7318
rtibia 33.9451
rfoot -21.1014 -11.8198
rtoes 11.7084
lfemur -19.3026 -5.05827 -18.3094
ltibia 34.5501
lfoot -18.5196 4.39197
ltoes -3.02681
1379
root 3.33726 17.9999 -4.1097 8.20374 5.18463 1.36521
lowerback 5.78022 -0.831713 -2.63339
upperback -3.32836 -1.2891 0.858048
thorax -6.64609 -0.494893 2.52356
lowerneck -19.3539 -3.97062 -5.38049
upperneck 6.30056 -4.5245 4.90795
head 5.23217 -1.99045 1.96308
rclavicle 3.47873e-016 5.56597e-015
rhumerus -23.9428 -24.9349 1.172
rradius 26.828
rwrist 2.62934
rhand -21.7686 -17.4198
rfingers 7.12502
rthumb 4.63219 -47.3491
lclavicle 3.47873e-016 5.56597e-015
lhumerus -20.3473 20.5867 6.62089
lradius 25.8259
lwrist -15.5559
lhand -16.2541 16.9381
lfingers 7.12502
lthumb 9.95497 46.6827
rfemur -17.0559 -6.19656 18.7648
rtibia 33.8517
rfoot -21.0671 -11.9838
rtoes 11.7384
lfemur -19.1808 -5.16557 -18.299
ltibia 34.5208
lfoot -18.486 4.54573
ltoes -3.05228
1380
root 3.33704 18.0023 -4.10465 8.12047 5.17738 1.32056
lowerback 5.69082 -0.824935 -2.63504
upperback -3.33226 -1.27583 0.890478
thorax -6.5988 -0.488343 2.55496
lowerneck -19.4404 -3.96478 -5.34948
upperneck 6.55618 -4.52034 4.83745
head 5.32379 -1.99091 1.934
rclavicle -5.87657e-015 -5.96354e-015
rhumerus -23.6627 -25.0624 1.3123
rradius 26.6266
rwrist 2.82359
rhand -21.7409 -17.4789
rfingers 7.12502
rthumb 4.65894 -47.4077
lclavicle -5.87657e-015 -5.96354e-015
lhumerus -20.1336 20.8163 6.57421
lradius 25.5826
lwrist -15.9084
lhand -16.1616 16.9931
lfingers 7.12502
lthumb 10.0443 46.7334
rfemur -16.9025 -6.01747 18.8178
rtibia 33.7572
rfoot -21.037 -12.1949
rtoes 11.7704
lfemur -19.0622 -5.25483 -18.2717
ltibia 34.5011
lfoot -18.4582 4.67919
ltoes -3.07841
1381
root 3.33629 18.0043 -4.09958 8.03507 5.16689 1.26447
lowerback 5.60124 -0.815303 -2.63097
upperback -3.33291 -1.25819 0.923844
thorax -6.54834 -0.479968 2.58362
lowerneck -19.5263 -3.95768 -5.31656
upperneck 6.8026 -4.51628 4.78147
head 5.41296 -1.99037 1.90928
rclavicle -4.96962e-017 9.93923e-016
rhumerus -23.4048 -25.2005 1.44192
rradius 26.4318
rwrist 3.00947
rhand -21.7068 -17.5389
rfingers 7.12502
rthumb 4.69187 -47.4669
lclavicle -4.96962e-017 9.93923e-016
lhumerus -19.9226 21.0484 6.53698
lradius 25.3458
lwrist -16.2422
lhand -16.0735 17.0415
lfingers 7.12502
lthumb 10.1292 46.7777
rfemur -16.7482 -5.80583 18.8885
rtibia 33.6625
rfoot -21.0106 -12.4418
rtoes 11.8041
lfemur -18.9478 -5.32515 -18.2281
ltibia 34.4916
lfoot -18.4379 4.78956
ltoes -3.10414
1382
root 3.33515 18.006 -4.09439 7.94815 5.15382 1.19868
lowerback 5.50989 -0.804572 -2.61921
upperback -3.33077 -1.23846 0.956306
thorax -6.49421 -0.471028 2.60671
lowerneck -19.61 -3.94903 -5.28101
upperneck 7.03943 -4.51242 4.74068
head 5.49928 -1.98876 1.88903
rclavicle -1.16786e-015 -1.68967e-014
rhumerus -23.1659 -25.3501 1.55551
rradius 26.2458
rwrist 3.18795
rhand -21.6647 -17.5963
rfingers 7.12502
rthumb 4.73252 -47.5235
lclavicle -1.16786e-015 -1.68967e-014
lhumerus -19.7184 21.2781 6.50427
lradius 25.1204
lwrist -16.5527
lhand -15.9922 17.0803
lfingers 7.12502
lthumb 10.2077 46.8126
rfemur -16.5936 -5.57332 18.9733
rtibia 33.569
rfoot -20.9878 -12.7097
rtoes 11.8397
lfemur -18.8379 -5.37659 -18.1706
ltibia 34.4926
lfoot -18.4263 4.87602
ltoes -3.13027
1383
root 3.3338 18.0073 -4.08901 7.86037 5.13951 1.12628
lowerback 5.41602 -0.794684 -2.59919
upperback -3.32662 -1.21932 0.98613
thorax -6.43668 -0.462887 2.62241
lowerneck -19.6889 -3.93856 -5.24282
upperneck 7.26544 -4.50863 4.71545
head 5.58192 -1.98601 1.87345
rclavicle -7.92654e-015 -7.95139e-016
rhumerus -22.9418 -25.5088 1.648
rradius 26.0693
rwrist 3.35963
rhand -21.6139 -17.6481
rfingers 7.12502
rthumb 4.78162 -47.5742
lclavicle -7.92654e-015 -7.95139e-016
lhumerus -19.5253 21.5008 6.47169
lradius 24.9105
lwrist -16.8394
lhand -15.9187 17.1093
lfingers 7.12502
lthumb 10.2786 46.8381
rfemur -16.4396 -5.33405 19.0669
rtibia 33.4783
rfoot -20.9686 -12.9818
rtoes 11.8762
lfemur -18.7325 -5.41036 -18.1031
ltibia 34.5036
lfoot -18.4239 4.93894
ltoes -3.1557
